<?xml version="1.0" encoding="utf-8"?>
<!-- Generator: Adobe Illustrator 25.0.0, SVG Export Plug-In . SVG Version: 6.00 Build 0)  -->
<svg version="1.1" xmlns="http://www.w3.org/2000/svg" xmlns:xlink="http://www.w3.org/1999/xlink" x="0px" y="0px"
	viewBox="0 -13 1129.5 549.4" style="enable-background:new 0 0 1129.5 549.4;" xml:space="preserve">
	<style type="text/css">
		.st0 {
			fill: #F4F4F4;
			stroke: #CCCCCC;
			stroke-miterlimit: 10;
		}

		.st1 {
			fill: #FF0000;
		}

		.st2 {
			fill: none;
			stroke: #A0A0A0;
			stroke-miterlimit: 10;
		}
		
		.st3 {
			fill: none;
			stroke: #A0A0A0;
			stroke-width: 2;
			stroke-miterlimit: 10;
		}

		.st4 {
			fill: #F4F4F4;
		}

		.st5 {
			font-family: 'MicrosoftYaHei';
		}

		.st6 {
			font-size: 12px;
		}

		.st7 {
			fill: #F77B32;
		}

		.st8 {
			fill: none;
			stroke: #F77B32;
			stroke-miterlimit: 10;
		}

		.st9 {
			fill: #007C2D;
		}

		.st10 {
			fill: #757575;
		}

		.st11 {
			fill: none;
			stroke: #D01600;
			stroke-width: 0.75;
			stroke-miterlimit: 10;
		}

		.st12 {
			fill: #E21C23;
		}

		#point {
			display: none;
		}
		.Fan {
			transform-origin: 14.6px 17.4px;
		}
		#W06 .break{
			fill: #f00;
		}
		.move{stroke: #0f0;}
	</style>
	<defs>
		<g id="wind01">
			<rect id="W01" x="9.7" y="36.8" class="st10" width="10" height="3.3" />
		</g>
		<g id="wind02">
			<rect id="W01" x="9.7" y="36.8" class="st10" width="10" height="3.3" />
			<line id="W02" class="st11" x1="14.7" y1="36.8" x2="14.7" y2="34.3" />
		</g>
		<g id="wind03">
			<rect id="W01" x="9.7" y="36.8" class="st10" width="10" height="3.3" />
			<line id="W02" class="st11" x1="14.7" y1="36.8" x2="14.7" y2="34.3" />
			<rect id="W03" x="11.7" y="34.3" class="st12" width="6" height="2.5" />
		</g>
		<g id="wind04">
			<polygon id="W04" class="st9" points="13.6,22 11.9,36.8 17.5,36.8 15.8,22 13.6,22 		" />
			<rect id="W01" x="9.7" y="36.8" class="st10" width="10" height="3.3" />
			<line id="W02" class="st11" x1="14.7" y1="36.8" x2="14.7" y2="34.3" />
			<rect id="W03" x="11.7" y="34.3" class="st12" width="6" height="2.5" />
		</g>
		<g id="wind05">
			<polygon id="W04" class="st9" points="13.6,22 11.9,36.8 17.5,36.8 15.8,22 13.6,22 		" />
			<path id="W05" class="st9"
				d="M14.7,20c1.5,0,2.7-1.2,2.7-2.7c0-1.5-1.2-2.7-2.7-2.7S12,15.9,12,17.3C12,18.8,13.2,20,14.7,20z" />
			<rect id="W01" x="9.7" y="36.8" class="st10" width="10" height="3.3" />
			<line id="W02" class="st11" x1="14.7" y1="36.8" x2="14.7" y2="34.3" />
			<rect id="W03" x="11.7" y="34.3" class="st12" width="6" height="2.5" />
		</g>
		<g id="wind06">
			<polygon id="W04" class="st9" points="13.6,22 11.9,36.8 17.5,36.8 15.8,22 13.6,22 		" />
			<path id="W05" class="st9"
				d="M14.7,20c1.5,0,2.7-1.2,2.7-2.7c0-1.5-1.2-2.7-2.7-2.7S12,15.9,12,17.3C12,18.8,13.2,20,14.7,20z" />
			<g id="W06">
				<path class="st9" d="M26,22.4c-2.2-1.6-4.6-3.1-7-4.6c-0.1-0.1-0.2-0.1-0.3,0c-0.1,0-0.2,0.1-0.2,0.3c-0.2,0.9-0.7,1.8-1.4,2.3
					c-0.1,0.1-0.1,0.2-0.1,0.3c0,0.1,0.1,0.2,0.2,0.3c4.6,2.5,10.1,5.2,11.7,5.3c0.2,0,0.4,0,0.6-0.3c0-0.1,0.1-0.2,0.1-0.3
					C29.3,24.9,28,24,26,22.4L26,22.4z" />
				<path class="st9" d="M13.3,14c-0.2,0.1-0.4,0-0.5-0.2c0,0,0-0.1,0-0.1c0.1-4.3,0.4-8.8,1-10.9C14,2.1,14,1.6,14.7,1.4
					c0.7,0.1,0.7,0.7,0.9,1.3c0.2,0.7,0.3,1.6,0.5,2.8c0.3,2.3,0.5,5.2,0.5,8.1c0,0.1-0.1,0.2-0.2,0.3c-0.1,0-0.1,0.1-0.2,0.1
					c0,0-0.1,0-0.1,0c-0.4-0.2-0.9-0.3-1.4-0.3C14.2,13.7,13.7,13.8,13.3,14L13.3,14z" />
				<path class="st9" d="M12.3,20.7c0,0.1-0.1,0.2-0.2,0.3c-4.6,2.5-9.9,5-11.5,5c-0.2,0-0.4,0-0.6-0.3C0,25.6,0,25.5,0,25.4
					c0.1-0.9,1.5-1.8,3.4-3.2c1.9-1.4,4.5-3,6.9-4.5c0.2-0.1,0.4,0,0.5,0.1c0,0,0,0.1,0,0.1c0.1,0.9,0.6,1.8,1.3,2.4
					C12.3,20.5,12.3,20.6,12.3,20.7z" />
			</g>
			<rect id="W01" x="9.7" y="36.8" class="st10" width="10" height="3.3" />
			<line id="W02" class="st11" x1="14.7" y1="36.8" x2="14.7" y2="34.3" />
			<rect id="W03" x="11.7" y="34.3" class="st12" width="6" height="2.5" />
		</g>
		<g id="wind07">
			<polygon id="W04" class="st9" points="13.6,22 11.9,36.8 17.5,36.8 15.8,22 13.6,22 		" />
			<path id="W05" class="st9"
				d="M14.7,20c1.5,0,2.7-1.2,2.7-2.7c0-1.5-1.2-2.7-2.7-2.7S12,15.9,12,17.3C12,18.8,13.2,20,14.7,20z" />
			<g id="W06" class="Fan">
				<path class="st9" d="M26,22.4c-2.2-1.6-4.6-3.1-7-4.6c-0.1-0.1-0.2-0.1-0.3,0c-0.1,0-0.2,0.1-0.2,0.3c-0.2,0.9-0.7,1.8-1.4,2.3
					c-0.1,0.1-0.1,0.2-0.1,0.3c0,0.1,0.1,0.2,0.2,0.3c4.6,2.5,10.1,5.2,11.7,5.3c0.2,0,0.4,0,0.6-0.3c0-0.1,0.1-0.2,0.1-0.3
					C29.3,24.9,28,24,26,22.4L26,22.4z" />
				<path class="st9" d="M13.3,14c-0.2,0.1-0.4,0-0.5-0.2c0,0,0-0.1,0-0.1c0.1-4.3,0.4-8.8,1-10.9C14,2.1,14,1.6,14.7,1.4
					c0.7,0.1,0.7,0.7,0.9,1.3c0.2,0.7,0.3,1.6,0.5,2.8c0.3,2.3,0.5,5.2,0.5,8.1c0,0.1-0.1,0.2-0.2,0.3c-0.1,0-0.1,0.1-0.2,0.1
					c0,0-0.1,0-0.1,0c-0.4-0.2-0.9-0.3-1.4-0.3C14.2,13.7,13.7,13.8,13.3,14L13.3,14z" />
				<path class="st9" d="M12.3,20.7c0,0.1-0.1,0.2-0.2,0.3c-4.6,2.5-9.9,5-11.5,5c-0.2,0-0.4,0-0.6-0.3C0,25.6,0,25.5,0,25.4
					c0.1-0.9,1.5-1.8,3.4-3.2c1.9-1.4,4.5-3,6.9-4.5c0.2-0.1,0.4,0,0.5,0.1c0,0,0,0.1,0,0.1c0.1,0.9,0.6,1.8,1.3,2.4
					C12.3,20.5,12.3,20.6,12.3,20.7z" />
				<animateTransform attributeName="transform" attributeType="XML" type="rotate" values="0;360" dur="1.8s"
					repeatCount="indefinite" />
			</g>
			<rect id="W01" x="9.7" y="36.8" class="st10" width="10" height="3.3" />
			<line id="W02" class="st11" x1="14.7" y1="36.8" x2="14.7" y2="34.3" />
			<rect id="W03" x="11.7" y="34.3" class="st12" width="6" height="2.5" />
		</g>
		
		<g id="wind08">
			<polygon id="W04" class="st9" points="13.6,22 11.9,36.8 17.5,36.8 15.8,22 13.6,22 		" />
			<path id="W05" class="st9"
				d="M14.7,20c1.5,0,2.7-1.2,2.7-2.7c0-1.5-1.2-2.7-2.7-2.7S12,15.9,12,17.3C12,18.8,13.2,20,14.7,20z" />
			<g id="W06">
				<path class="st9 break" d="M26,22.4c-2.2-1.6-4.6-3.1-7-4.6c-0.1-0.1-0.2-0.1-0.3,0c-0.1,0-0.2,0.1-0.2,0.3c-0.2,0.9-0.7,1.8-1.4,2.3
					c-0.1,0.1-0.1,0.2-0.1,0.3c0,0.1,0.1,0.2,0.2,0.3c4.6,2.5,10.1,5.2,11.7,5.3c0.2,0,0.4,0,0.6-0.3c0-0.1,0.1-0.2,0.1-0.3
					C29.3,24.9,28,24,26,22.4L26,22.4z" />
				<path class="st9 break" d="M13.3,14c-0.2,0.1-0.4,0-0.5-0.2c0,0,0-0.1,0-0.1c0.1-4.3,0.4-8.8,1-10.9C14,2.1,14,1.6,14.7,1.4
					c0.7,0.1,0.7,0.7,0.9,1.3c0.2,0.7,0.3,1.6,0.5,2.8c0.3,2.3,0.5,5.2,0.5,8.1c0,0.1-0.1,0.2-0.2,0.3c-0.1,0-0.1,0.1-0.2,0.1
					c0,0-0.1,0-0.1,0c-0.4-0.2-0.9-0.3-1.4-0.3C14.2,13.7,13.7,13.8,13.3,14L13.3,14z" />
				<path class="st9 break" d="M12.3,20.7c0,0.1-0.1,0.2-0.2,0.3c-4.6,2.5-9.9,5-11.5,5c-0.2,0-0.4,0-0.6-0.3C0,25.6,0,25.5,0,25.4
					c0.1-0.9,1.5-1.8,3.4-3.2c1.9-1.4,4.5-3,6.9-4.5c0.2-0.1,0.4,0,0.5,0.1c0,0,0,0.1,0,0.1c0.1,0.9,0.6,1.8,1.3,2.4
					C12.3,20.5,12.3,20.6,12.3,20.7z" />
			</g>
			<rect id="W01" x="9.7" y="36.8" class="st10" width="10" height="3.3" />
			<line id="W02" class="st11" x1="14.7" y1="36.8" x2="14.7" y2="34.3" />
			<rect id="W03" x="11.7" y="34.3" class="st12" width="6" height="2.5" />
		</g>
		
		<g id="wind09">
			<polygon id="W04" class="st9" points="13.6,22 11.9,36.8 17.5,36.8 15.8,22 13.6,22 		" />
			<path id="W05" class="st9"
				d="M14.7,20c1.5,0,2.7-1.2,2.7-2.7c0-1.5-1.2-2.7-2.7-2.7S12,15.9,12,17.3C12,18.8,13.2,20,14.7,20z" />
			<g id="W06" class="Fan">
				<path class="st9" d="M26,22.4c-2.2-1.6-4.6-3.1-7-4.6c-0.1-0.1-0.2-0.1-0.3,0c-0.1,0-0.2,0.1-0.2,0.3c-0.2,0.9-0.7,1.8-1.4,2.3
					c-0.1,0.1-0.1,0.2-0.1,0.3c0,0.1,0.1,0.2,0.2,0.3c4.6,2.5,10.1,5.2,11.7,5.3c0.2,0,0.4,0,0.6-0.3c0-0.1,0.1-0.2,0.1-0.3
					C29.3,24.9,28,24,26,22.4L26,22.4z" />
				<path class="st9" d="M13.3,14c-0.2,0.1-0.4,0-0.5-0.2c0,0,0-0.1,0-0.1c0.1-4.3,0.4-8.8,1-10.9C14,2.1,14,1.6,14.7,1.4
					c0.7,0.1,0.7,0.7,0.9,1.3c0.2,0.7,0.3,1.6,0.5,2.8c0.3,2.3,0.5,5.2,0.5,8.1c0,0.1-0.1,0.2-0.2,0.3c-0.1,0-0.1,0.1-0.2,0.1
					c0,0-0.1,0-0.1,0c-0.4-0.2-0.9-0.3-1.4-0.3C14.2,13.7,13.7,13.8,13.3,14L13.3,14z" />
				<path class="st9" d="M12.3,20.7c0,0.1-0.1,0.2-0.2,0.3c-4.6,2.5-9.9,5-11.5,5c-0.2,0-0.4,0-0.6-0.3C0,25.6,0,25.5,0,25.4
					c0.1-0.9,1.5-1.8,3.4-3.2c1.9-1.4,4.5-3,6.9-4.5c0.2-0.1,0.4,0,0.5,0.1c0,0,0,0.1,0,0.1c0.1,0.9,0.6,1.8,1.3,2.4
					C12.3,20.5,12.3,20.6,12.3,20.7z" />
				<animateTransform attributeName="transform" attributeType="XML" type="rotate" values="0;360" dur="1.8s"
					repeatCount="indefinite" />
			</g>
			<rect id="W01" x="9.7" y="36.8" class="st10" width="10" height="3.3" />
			<line id="W02" class="st11" x1="14.7" y1="36.8" x2="14.7" y2="34.3" />
			<rect id="W03" x="11.7" y="34.3" class="st12" width="6" height="2.5" />
		</g>
	</defs>

	<g id="图层_1">
		<polygon class="st0"
			points="14,69.9 8.6,216.6 410.7,227.9 862.8,539.5 1121.5,539.5 1121.5,101.1 732.7,10.9 	" />
		<g id="point">
			<circle id="p1" class="st1" cx="34.9" cy="78.7" r="3.4" />
			<circle id="p2" class="st1" cx="74.5" cy="75.7" r="3.4" />
			<circle id="p3" class="st1" cx="113.5" cy="72.9" r="3.4" />
			<circle id="p4" class="st1" cx="153.2" cy="69.6" r="3.4" />
			<circle id="p5" class="st1" cx="192.8" cy="66.9" r="3.4" />
			<circle id="p6" class="st1" cx="233.6" cy="63.8" r="3.4" />
			<circle id="p7" class="st1" cx="272.5" cy="60.7" r="3.4" />
			<circle id="p8" class="st1" cx="314.4" cy="57.3" r="3.4" />
			<circle id="p9" class="st1" cx="527.9" cy="40.8" r="3.4" />
			<circle id="p10" class="st1" cx="566.8" cy="37.8" r="3.4" />
			<circle id="p11" class="st1" cx="603.5" cy="34.8" r="3.4" />
			<circle id="p12" class="st1" cx="642.8" cy="31.9" r="3.4" />
			<circle id="p13" class="st1" cx="678.3" cy="29.2" r="3.4" />
			<circle id="p14" class="st1" cx="716.4" cy="26.3" r="3.4" />
			<circle id="p15" class="st1" cx="753.5" cy="23.5" r="3.4" />
			<circle id="p16" class="st1" cx="31.9" cy="184.6" r="3.4" />
			<circle id="p17" class="st1" cx="70.2" cy="175.8" r="3.4" />
			<circle id="p18" class="st1" cx="106.6" cy="180.2" r="3.4" />
			<circle id="p19" class="st1" cx="144.2" cy="188.2" r="3.4" />
			<circle id="p20" class="st1" cx="181.7" cy="190.7" r="3.4" />
			<circle id="p21" class="st1" cx="220" cy="191.4" r="3.4" />
			<circle id="p22" class="st1" cx="257.4" cy="194" r="3.4" />
			<circle id="p23" class="st1" cx="290.6" cy="175.6" r="3.4" />
			<circle id="p24" class="st1" cx="508.9" cy="158.9" r="3.4" />
			<circle id="p25" class="st1" cx="547.7" cy="155.5" r="3.4" />
			<circle id="p26" class="st1" cx="586" cy="150.2" r="3.4" />
			<circle id="p27" class="st1" cx="624.3" cy="157" r="3.4" />
			<circle id="p28" class="st1" cx="661.2" cy="160.5" r="3.4" />
			<circle id="p29" class="st1" cx="695.3" cy="178.7" r="3.4" />
			<circle id="p30" class="st1" cx="727.9" cy="197.2" r="3.4" />
			<circle id="p31" class="st1" cx="760.3" cy="218.4" r="3.4" />
			<circle id="p32" class="st1" cx="792.8" cy="237.6" r="3.4" />
			<circle id="p33" class="st1" cx="818" cy="266.9" r="3.4" />
			<circle id="p34" class="st1" cx="849.2" cy="287.6" r="3.4" />
			<circle id="p35" class="st1" cx="884.8" cy="301.4" r="3.4" />
			<circle id="p36" class="st1" cx="913.4" cy="325.9" r="3.4" />
			<circle id="p37" class="st1" cx="951.5" cy="331.5" r="3.4" />
			<circle id="p38" class="st1" cx="642.4" cy="348.1" r="3.4" />
			<circle id="p39" class="st1" cx="678.9" cy="366.9" r="3.4" />
			<circle id="p40" class="st1" cx="712" cy="383.4" r="3.4" />
			<circle id="p41" class="st1" cx="750.5" cy="392.9" r="3.4" />
			<circle id="p42" class="st1" cx="784.9" cy="406" r="3.4" />
			<circle id="p43" class="st1" cx="812.4" cy="434.1" r="3.4" />
			<circle id="p44" class="st1" cx="846" cy="454.5" r="3.4" />
			<circle id="p45" class="st1" cx="884.1" cy="455.3" r="3.4" />
			<circle id="p46" class="st1" cx="922.1" cy="454.6" r="3.4" />
			<circle id="p47" class="st1" cx="960.5" cy="453.9" r="3.4" />
		</g>
		<g id="line">
			<polyline class="st2" points="644,226.1 642.9,31.9 527.9,40.6 		" />
			<polyline class="st2" points="647.5,226.1 646.3,57.9 678.5,29.2 715.9,26.3 753.5,23.5 		" />
			<polyline class="st2" points="635.1,226.1 625.5,188.8 588.6,183 540.2,192.1 497.3,191.4 305.3,91.7 159.3,102.9 113.6,73
			34.9,79 		" >
				
			</polyline>
			<polyline class="st2  move" stroke-dasharray="20" points="635.1,226.1 625.5,188.8 588.6,183 540.2,192.1 497.3,191.4 305.3,91.7 159.3,102.9 113.6,73 
			34.9,79 		" >
				<animate attributeName="stroke-dasharray" from="0 20" to="20 0" dur="1.5s" begin="0s" fill="freeze"
				        repeatCount="indefinite" />
			</polyline>
			
			<polyline class="st2" points="637.6,226.1 627.1,185.7 589.4,179.5 541.1,187.5 501.3,184.3 308.3,84 270.3,86.7 233.6,63.8 
			153.2,69.8 		" />
			<polyline class="st2" points="647.8,226.1 661.2,160.5 694.7,178.3 727.7,197.2 760.3,218.4 		" />
			<polyline class="st2" points="650.8,226.1 660.1,180.9 745.8,243 792.9,238.1 817.8,266.8 849.2,287.6 		" />
			<polyline class="st2" points="653.8,226.1 661.8,187.4 743.9,249.3 771.5,256.5 795.6,287.2 832.5,312.3 884.8,301.6 913.2,325.9 
			951.5,331.5 		" />
			<polyline class="st2" points="547.7,155.8 586,150.2 624.6,156.7 642.4,226.1 		" />
			<polyline class="st2"
				points="272.5,60.8 314.3,57.7 509,158.9 541.2,183.4 588.2,175.9 628.9,182.9 640,226.1 		" />
			<polyline class="st3" points="651,236.6 676.5,276.2 1189.7,516 		" />
			<polyline class="st3" points="655.2,236.1 678.7,272.4 1191.9,512.1 		" />
			<polyline class="st2" points="31.9,184.6 70.2,175.7 106.5,180.1 144.2,188.1 159.4,186.7 181.1,146.7 257.3,147.3 292.4,133.1 
			478,198.9 637.9,314 637.9,237 		" />
			<polyline class="st2" points="181.1,190.9 257.3,193.4 291,175.9 472.6,209.5 640.2,322.6 640.2,237 		" />
			<polyline class="st2"
				points="960,452.7 920.9,454.5 883.3,454.5 864.1,445.7 843.2,387.8 647.8,299.7 647.8,237 		" />
			<polyline class="st2"
				points="846,454.5 812.2,434.2 784.7,405.9 767.8,394.4 765.5,358.7 645.5,305.5 645.5,237 		" />
			<polyline class="st2" points="750.5,392.9 712,383.4 677.9,366.4 642.4,348.3 642.4,237 		" />
		</g>
		<g id="station">
			<polygon class="st4" points="659.5,237 631.3,237 634.6,226.1 656.2,226.1 		" />
		</g>
		<g id="name">
			<text transform="matrix(1 0 0 1 26.4533 98.6332)" class="st5 st6">1#</text>
			<text transform="matrix(1 0 0 1 63.95 93.7587)" class="st5 st6">2#</text>
			<text transform="matrix(1 0 0 1 103.9633 92.2588)" class="st5 st6">3#</text>
			<text transform="matrix(1 0 0 1 144.6225 85.5094)" class="st5 st6">4#</text>
			<text transform="matrix(1 0 0 1 183.4774 83.6345)" class="st5 st6">5#</text>
			<text transform="matrix(1 0 0 1 221.8195 78.7485)" class="st5 st6">6#</text>
			<text transform="matrix(1 0 0 1 262.316 76.3208)" class="st5 st6">7#</text>
			<text transform="matrix(1 0 0 1 301.6876 76.0729)" class="st5 st6">8#</text>
			<text transform="matrix(1 0 0 1 517.4935 57.8662)" class="st5 st6">9#</text>
			<text transform="matrix(1 0 0 1 556.1285 54.3278)" class="st5 st6">10#</text>
			<text transform="matrix(1 0 0 1 592.9281 52.2047)" class="st5 st6">11#</text>
			<text transform="matrix(1 0 0 1 629.7277 47.9586)" class="st5 st6">12#</text>
			<text transform="matrix(1 0 0 1 668.2965 45.4817)" class="st5 st6">13#</text>
			<text transform="matrix(1 0 0 1 707.424 41.8531)" class="st5 st6">14#</text>
			<text transform="matrix(1 0 0 1 744.5751 41.8532)" class="st5 st6">15#</text>
			<text transform="matrix(1 0 0 1 23.9298 204.124)" class="st5 st6">16#</text>
			<text transform="matrix(1 0 0 1 53.0131 194.8034)" class="st5 st6">17#</text>
			<text transform="matrix(1 0 0 1 91.264 197.4142)" class="st5 st6">18#</text>
			<text transform="matrix(1 0 0 1 129.8896 206.2657)" class="st5 st6">19#</text>
			<text transform="matrix(1 0 0 1 166.9353 207.8463)" class="st5 st6">20#</text>
			<text transform="matrix(1 0 0 1 203.6578 208.847)" class="st5 st6">21#</text>
			<text transform="matrix(1 0 0 1 242.6995 210.6914)" class="st5 st6">22#</text>
			<text transform="matrix(1 0 0 1 278.4214 193.1252)" class="st5 st6">23#</text>
			<text transform="matrix(1 0 0 1 495.6977 177.3023)" class="st5 st6">24#</text>
			<text transform="matrix(1 0 0 1 557.6949 232.4319)" class="st5 st6">海上升压站</text>
			<text transform="matrix(1 0 0 1 534.6666 174.0081)" class="st5 st6">25#</text>
			<text transform="matrix(1 0 0 1 572.0403 168.6029)" class="st5 st6">26#</text>
			<text transform="matrix(1 0 0 1 608.7064 171.6494)" class="st5 st6">27#</text>
			<text transform="matrix(1 0 0 1 650.6824 177.3022)" class="st5 st6">28#</text>
			<text transform="matrix(1 0 0 1 681.7606 194.3829)" class="st5 st6">29#</text>
			<text transform="matrix(1 0 0 1 711.2264 215.0399)" class="st5 st6">30#</text>
			<text transform="matrix(1 0 0 1 744.5748 236.2901)" class="st5 st6">31#</text>
			<text transform="matrix(1 0 0 1 777.533 256.4988)" class="st5 st6">32#</text>
			<text transform="matrix(1 0 0 1 801.5096 283.8555)" class="st5 st6">33#</text>
			<text transform="matrix(1 0 0 1 834.6221 303.8858)" class="st5 st6">34#</text>
			<text transform="matrix(1 0 0 1 870.3098 318.2809)" class="st5 st6">35#</text>
			<text transform="matrix(1 0 0 1 898.7698 341.6343)" class="st5 st6">36#</text>
			<text transform="matrix(1 0 0 1 937.168 348.8258)" class="st5 st6">37#</text>
			<text transform="matrix(1 0 0 1 631.91 367.7625)" class="st5 st6">38#</text>
			<text transform="matrix(1 0 0 1 664.0449 383.9412)" class="st5 st6">39#</text>
			<text transform="matrix(1 0 0 1 698.8308 400.7169)" class="st5 st6">40#</text>
			<text transform="matrix(1 0 0 1 736.0025 410.7818)" class="st5 st6">41#</text>
			<text transform="matrix(1 0 0 1 770.4387 425.2911)" class="st5 st6">42#</text>
			<text transform="matrix(1 0 0 1 797.8147 451.9633)" class="st5 st6">43#</text>
			<text transform="matrix(1 0 0 1 831.3036 470.0423)" class="st5 st6">44#</text>
			<text transform="matrix(1 0 0 1 869.3654 471.1902)" class="st5 st6">45#</text>
			<text transform="matrix(1 0 0 1 909.2539 470.0425)" class="st5 st6">46#</text>
			<text transform="matrix(1 0 0 1 947.1337 470.0424)" class="st5 st6">47#</text>
		</g>
		<g>
			<rect x="628.3" y="206.3" class="st7" width="35" height="10.5" />
			<g>
				<g id="station_1_">
					<polygon class="st8" points="659.5,237 631.3,237 634.6,226.1 656.2,226.1 				" />
				</g>
				<line class="st8" x1="656.2" y1="226.1" x2="631.3" y2="237" />
				<line class="st8" x1="659.5" y1="237" x2="634.6" y2="226.1" />
			</g>
			<g>
				<line class="st8" x1="631.3" y1="237" x2="633.8" y2="216.8" />
				<line class="st8" x1="634.6" y1="226.1" x2="635.1" y2="216.8" />
				<line class="st8" x1="659.5" y1="237" x2="657" y2="216.8" />
				<line class="st8" x1="656.2" y1="226.1" x2="655.7" y2="216.8" />
				<line class="st8" x1="631.3" y1="237" x2="657" y2="216.8" />
				<line class="st8" x1="659.5" y1="237" x2="633.8" y2="216.8" />
				<line class="st8" x1="635.1" y1="226.1" x2="655.7" y2="216.8" />
				<line class="st8" x1="656.2" y1="226.1" x2="635.1" y2="216.8" />
			</g>
		</g>
	</g>
	<g id="winds">
		<!-- <use class="wind02" xlink:href="" x="60" y="38" /> -->
		<!-- <use class="wind01" xlink:href="#wind01" x="20" y="40" />
		<use class="wind02" xlink:href="#wind02" x="60" y="38" />
		<use class="wind03" xlink:href="#wind03" x="98" y="36" />
		<use class="wind04" xlink:href="#wind04" x="138" y="32" />
		<use class="wind05" xlink:href="#wind05" x="178" y="29" />
		<use class="wind06" xlink:href="#wind06" x="219" y="26" />
		<use class="wind07" xlink:href="#wind07" x="257" y="22" />
		<use class="wind08" xlink:href="#wind08" x="300" y="19" />
		<use class="wind09" xlink:href="#wind01" x="512.9" y="3.1" /> -->
			<use   xlink:href=""   class="st1"  x="34.9" y="78.7"  />
			<use   xlink:href=""   class="st1" x="74.5" y="75.7"  />
			<use   xlink:href=""   class="st1" x="113.5" y="72.9"  />
			<use   xlink:href=""   class="st1" x="153.2" y="69.6"  />
			<use   xlink:href=""   class="st1" x="192.8" y="66.9"  />
			<use   xlink:href=""   class="st1" x="233.6" y="63.8"  />
			<use   xlink:href=""   class="st1" x="272.5" y="60.7"  />
			<use   xlink:href=""   class="st1" x="314.4" y="57.3"  />
			<use   xlink:href=""   class="st1" x="527.9" y="40.8"  />
			<use   xlink:href=""    class="st1" x="566.8" y="37.8"  />
			<use   xlink:href=""    class="st1" x="603.5" y="34.8"  />
			<use   xlink:href=""    class="st1" x="642.8" y="31.9"  />
			<use   xlink:href=""    class="st1" x="678.3" y="29.2"  />
			<use   xlink:href=""    class="st1" x="716.4" y="26.3"  />
			<use   xlink:href=""    class="st1" x="753.5" y="23.5"  />
			<use   xlink:href=""    class="st1" x="31.9" y="184.6"  />
			<use   xlink:href=""    class="st1" x="70.2" y="175.8"  />
			<use   xlink:href=""    class="st1" x="106.6" y="180.2"  />
			<use   xlink:href=""    class="st1" x="144.2" y="188.2"  />
			<use   xlink:href=""    class="st1" x="181.7" y="190.7"  />
			<use   xlink:href=""    class="st1" x="220" y="191.4"  />
			<use   xlink:href=""    class="st1" x="257.4" y="194"  />
			<use   xlink:href=""    class="st1" x="290.6" y="175.6"  />
			<use   xlink:href=""    class="st1" x="508.9" y="158.9"  />
			<use   xlink:href=""    class="st1" x="547.7" y="155.5"  />
			<use   xlink:href=""    class="st1" x="586" y="150.2"  />
			<use   xlink:href=""    class="st1" x="624.3" y="157"  />
			<use   xlink:href=""    class="st1" x="661.2" y="160.5"  />
			<use   xlink:href=""    class="st1" x="695.3" y="178.7"  />
			<use   xlink:href=""    class="st1" x="727.9" y="197.2"  />
			<use   xlink:href=""    class="st1" x="760.3" y="218.4"  />
			<use   xlink:href=""    class="st1" x="792.8" y="237.6"  />
			<use   xlink:href=""    class="st1" x="818" y="266.9"  />
			<use   xlink:href=""    class="st1" x="849.2" y="287.6"  />
			<use   xlink:href=""    class="st1" x="884.8" y="301.4"  />
			<use   xlink:href=""    class="st1" x="913.4" y="325.9"  />
			<use   xlink:href=""    class="st1" x="951.5" y="331.5"  />
			<use   xlink:href=""    class="st1" x="642.4" y="348.1"  />
			<use   xlink:href=""    class="st1" x="678.9" y="366.9"  />
			<use   xlink:href=""    class="st1" x="712" y="383.4"  />
			<use   xlink:href=""    class="st1" x="750.5" y="392.9"  />
			<use   xlink:href=""    class="st1" x="784.9" y="406"  />
			<use   xlink:href=""    class="st1" x="812.4" y="434.1"  />
			<use   xlink:href=""    class="st1" x="846" y="454.5"  />
			<use   xlink:href=""    class="st1" x="884.1" y="455.3"  />
			<use   xlink:href=""    class="st1" x="922.1" y="454.6"  />
			<use   xlink:href=""    class="st1" x="960.5" y="453.9"  />
	</g>
</svg>
